<?xml version="1.0" standalone="no"?>
<!DOCTYPE svg PUBLIC "-//W3C//DTD SVG 20010904//EN"
 "http://www.w3.org/TR/2001/REC-SVG-20010904/DTD/svg10.dtd">
<svg version="1.0" xmlns="http://www.w3.org/2000/svg"
 width="300.000000pt" height="262.000000pt" viewBox="0 0 300.000000 262.000000"
 preserveAspectRatio="xMidYMid meet">

<g transform="translate(0.000000,262.000000) scale(0.100000,-0.100000)"
fill="#000000" stroke="none">
<path d="M2020 1823 c-198 -54 -310 -212 -310 -435 0 -190 68 -327 198 -396
137 -73 293 -80 469 -20 l98 33 3 193 2 192 -170 0 -170 0 0 -50 0 -50 115 0
116 0 -3 -112 -3 -113 -70 -18 c-146 -38 -286 -10 -372 75 -70 68 -88 122 -88
264 0 119 1 122 35 190 61 119 161 172 310 161 90 -6 171 -33 242 -81 l53 -35
3 67 c4 80 2 82 -113 118 -107 35 -253 42 -345 17z"/>
<path d="M490 1775 l0 -45 90 0 90 0 0 -300 c0 -336 -2 -349 -65 -376 -44 -18
-119 -18 -178 0 l-47 14 0 -53 c0 -30 4 -56 9 -59 5 -3 46 -9 93 -12 107 -8
182 11 238 63 66 59 70 85 70 475 l0 338 -150 0 -150 0 0 -45z"/>
<path d="M900 1770 l0 -50 155 0 155 0 0 -385 0 -385 60 0 60 0 0 385 0 385
155 0 155 0 0 50 0 50 -370 0 -370 0 0 -50z"/>
</g>
</svg>
