<svg width="24" height="24" xmlns="http://www.w3.org/2000/svg" fill="currentColor">

 <g>
  <title>Layer 1</title>
  <path fill="white" id="svg_1" d="m18.88,1.099c-0.733,-0.733 -1.615,-1.099 -2.647,-1.099l-12.487,0c-1.032,0 -1.914,0.366 -2.647,1.099c-0.733,0.733 -1.099,1.615 -1.099,2.647l0,12.487c0,1.032 0.366,1.914 1.099,2.647c0.733,0.733 1.615,1.099 2.647,1.099l2.914,0c0.19,0 0.333,-0.007 0.429,-0.02a0.504,0.504 0 0 0 0.286,-0.169c0.095,-0.1 0.143,-0.245 0.143,-0.435l-0.007,-0.885c-0.004,-0.564 -0.006,-1.01 -0.006,-1.34l-0.3,0.052c-0.19,0.035 -0.43,0.05 -0.721,0.046a5.555,5.555 0 0 1 -0.904,-0.091a2.026,2.026 0 0 1 -0.872,-0.39a1.651,1.651 0 0 1 -0.572,-0.8l-0.13,-0.3a3.25,3.25 0 0 0 -0.41,-0.663c-0.186,-0.243 -0.375,-0.407 -0.566,-0.494l-0.09,-0.065a0.956,0.956 0 0 1 -0.17,-0.156a0.723,0.723 0 0 1 -0.117,-0.182c-0.026,-0.061 -0.004,-0.111 0.065,-0.15c0.07,-0.04 0.195,-0.059 0.378,-0.059l0.26,0.04c0.173,0.034 0.388,0.138 0.643,0.311a2.1,2.1 0 0 1 0.631,0.677c0.2,0.355 0.44,0.626 0.722,0.813c0.282,0.186 0.566,0.28 0.852,0.28c0.286,0 0.533,-0.022 0.742,-0.065a2.59,2.59 0 0 0 0.585,-0.196c0.078,-0.58 0.29,-1.028 0.637,-1.34a8.907,8.907 0 0 1 -1.333,-0.234a5.314,5.314 0 0 1 -1.223,-0.507a3.5,3.5 0 0 1 -1.047,-0.872c-0.277,-0.347 -0.505,-0.802 -0.683,-1.365c-0.177,-0.564 -0.266,-1.215 -0.266,-1.952c0,-1.049 0.342,-1.942 1.027,-2.68c-0.32,-0.788 -0.29,-1.673 0.091,-2.652c0.252,-0.079 0.625,-0.02 1.119,0.175c0.494,0.195 0.856,0.362 1.086,0.5c0.23,0.14 0.414,0.257 0.553,0.352a9.233,9.233 0 0 1 2.497,-0.338c0.859,0 1.691,0.113 2.498,0.338l0.494,-0.312a6.997,6.997 0 0 1 1.197,-0.572c0.46,-0.174 0.81,-0.221 1.054,-0.143c0.39,0.98 0.424,1.864 0.103,2.653c0.685,0.737 1.028,1.63 1.028,2.68c0,0.737 -0.089,1.39 -0.267,1.957c-0.177,0.568 -0.407,1.023 -0.689,1.366c-0.282,0.343 -0.633,0.63 -1.053,0.865c-0.42,0.234 -0.828,0.403 -1.223,0.507a8.9,8.9 0 0 1 -1.333,0.235c0.45,0.39 0.676,1.005 0.676,1.846l0,3.11c0,0.147 0.021,0.266 0.065,0.357a0.36,0.36 0 0 0 0.208,0.189c0.096,0.034 0.18,0.056 0.254,0.064c0.074,0.01 0.18,0.013 0.318,0.013l2.914,0c1.032,0 1.914,-0.366 2.647,-1.099c0.732,-0.732 1.099,-1.615 1.099,-2.647l0,-12.486c0,-1.032 -0.367,-1.914 -1.1,-2.647l0.001,0z"/>
 </g>
</svg>