<svg width="24" height="24" xmlns="http://www.w3.org/2000/svg" fill="currentColor">

 <g>
  <title>Layer 1</title>
  <path fill="white" id="svg_1" d="m10.006,18.443l-3.68,-11.325l7.36,0l-3.68,11.325zm0,0l-8.838,-11.325l5.158,0l3.68,11.325zm-8.838,-11.325l8.838,11.325l-9.68,-7.032a0.762,0.762 0 0 1 -0.276,-0.852l1.118,-3.441zm0,0l2.217,-6.822a0.38,0.38 0 0 1 0.724,0l2.217,6.822l-5.158,0zm8.838,11.325l3.68,-11.325l5.157,0l-8.837,11.325zm8.837,-11.325l1.119,3.441a0.762,0.762 0 0 1 -0.277,0.852l-9.68,7.032l8.838,-11.325zm0,0l-5.157,0l2.216,-6.822a0.38,0.38 0 0 1 0.725,0l2.216,6.822z"/>
 </g>
</svg>