<svg width="24" height="24" xmlns="http://www.w3.org/2000/svg" fill="currentColor">

 <g>
  <title>Layer 1</title>
  <path fill="white" id="svg_1" d="m14.017,0l-8.07,0a5.954,5.954 0 0 0 -5.947,5.948l0,8.07a5.954,5.954 0 0 0 5.948,5.947l8.07,0a5.954,5.954 0 0 0 5.947,-5.948l0,-8.07a5.954,5.954 0 0 0 -5.948,-5.947zm3.94,14.017a3.94,3.94 0 0 1 -3.94,3.94l-8.07,0a3.94,3.94 0 0 1 -3.939,-3.94l0,-8.07a3.94,3.94 0 0 1 3.94,-3.939l8.07,0a3.94,3.94 0 0 1 3.939,3.94l0,8.07l0,-0.001z"/>
  <path fill="white" id="svg_2" d="m9.982,4.819a5.17,5.17 0 0 0 -5.162,5.163a5.17,5.17 0 0 0 5.163,5.164a5.17,5.17 0 0 0 5.164,-5.164a5.17,5.17 0 0 0 -5.165,-5.162l0,-0.001zm0,8.319a3.155,3.155 0 1 1 0,-6.31a3.155,3.155 0 0 1 0,6.31z"/>
  <circle fill="white" id="svg_3" r="1.237" cy="4.858" cx="15.23704"/>
 </g>
</svg>