<svg width="24" height="24" xmlns="http://www.w3.org/2000/svg" fill="currentColor">

 <g>
  <title>Layer 1</title>
  <path fill="white" id="svg_1" d="m19.959,11.719l0,7.379l-4.278,0l0,-6.885c0,-1.73 -0.619,-2.91 -2.167,-2.91c-1.182,0 -1.886,0.796 -2.195,1.565c-0.113,0.275 -0.142,0.658 -0.142,1.043l0,7.187l-4.28,0s0.058,-11.66 0,-12.869l4.28,0l0,1.824l-0.028,0.042l0.028,0l0,-0.042c0.568,-0.875 1.583,-2.126 3.856,-2.126c2.815,0 4.926,1.84 4.926,5.792zm-17.538,-11.693c-1.463,0 -2.421,0.96 -2.421,2.223c0,1.235 0.93,2.224 2.365,2.224l0.028,0c1.493,0 2.42,-0.989 2.42,-2.224c-0.026,-1.263 -0.926,-2.223 -2.391,-2.223l-0.001,0zm-2.167,19.072l4.278,0l0,-12.869l-4.278,0l0,12.869z"/>
 </g>
</svg>