<?xml version="1.0" standalone="no"?>
<!DOCTYPE svg PUBLIC "-//W3C//DTD SVG 20010904//EN"
 "http://www.w3.org/TR/2001/REC-SVG-20010904/DTD/svg10.dtd">
<svg version="1.0" xmlns="http://www.w3.org/2000/svg"
 width="474.000000pt" height="474.000000pt" viewBox="0 0 474.000000 474.000000"
 preserveAspectRatio="xMidYMid meet">

<g transform="translate(0.000000,474.000000) scale(0.100000,-0.100000)"
fill="#000000" stroke="none">
<path d="M683 3773 c-44 -39 -43 -26 -43 -872 l0 -810 23 -25 c21 -25 313
-197 357 -211 12 -4 35 -1 51 6 59 24 59 23 59 538 0 275 4 480 10 495 10 28
57 56 91 56 21 0 186 -87 297 -157 29 -18 59 -30 65 -27 7 4 9 4 5 -1 -4 -4 2
-13 15 -20 12 -6 70 -39 129 -73 58 -34 118 -62 133 -62 29 0 62 18 375 200
107 62 206 119 220 127 31 16 65 17 93 1 53 -28 52 -21 52 -321 l0 -279 -45
-25 c-152 -85 -298 -169 -320 -183 -14 -10 -50 -31 -80 -47 -75 -40 -218 -122
-257 -147 l-33 -21 0 -265 c0 -221 3 -269 15 -287 13 -19 173 -123 189 -123 3
0 38 -20 78 -43 40 -24 123 -72 183 -107 61 -34 151 -87 202 -116 50 -30 94
-54 96 -54 3 0 47 -25 98 -55 63 -37 104 -55 127 -55 23 0 66 19 135 59 412
237 613 352 817 468 129 74 245 145 258 159 l22 25 0 529 c0 359 -3 537 -11
553 -15 33 -64 60 -95 53 -13 -4 -65 -29 -114 -58 -78 -44 -88 -53 -78 -67 11
-14 11 -14 -4 -3 -15 12 -27 8 -88 -29 -41 -24 -77 -54 -85 -70 -12 -23 -15
-85 -15 -323 0 -186 -4 -304 -11 -318 -9 -20 -76 -67 -171 -117 -30 -16 -83
-47 -298 -171 -282 -162 -251 -158 -428 -57 -70 40 -140 79 -155 87 -41 21
-74 57 -80 88 -10 50 16 87 88 128 37 22 91 53 119 69 29 17 123 71 210 120
86 50 172 102 189 116 l32 27 0 832 0 832 -28 24 c-46 40 -78 32 -221 -52 -71
-41 -145 -84 -165 -95 -20 -11 -52 -29 -71 -40 -122 -72 -517 -297 -546 -312
-21 -10 -32 -22 -28 -29 4 -7 3 -8 -5 -4 -6 4 -35 -7 -63 -25 -95 -58 -99 -57
-332 75 -113 65 -208 117 -212 116 -4 -1 -10 3 -13 8 -6 9 -70 47 -236 140
-44 24 -113 64 -152 88 -40 24 -74 44 -77 44 -2 0 -46 25 -97 55 -100 59 -141
68 -176 38z"/>
<path d="M3947 3766 c-21 -14 -41 -26 -44 -26 -3 0 -52 -29 -109 -65 -57 -36
-107 -65 -110 -65 -4 0 -17 -11 -30 -26 -24 -25 -24 -28 -24 -235 l0 -211 29
-29 c30 -30 67 -37 99 -19 145 80 321 194 330 215 16 35 16 398 0 428 -31 59
-84 71 -141 33z"/>
</g>
</svg>
