<?xml version="1.0" encoding="UTF-8" standalone="no" ?>
<!DOCTYPE svg PUBLIC "-//W3C//DTD SVG 1.1//EN" "http://www.w3.org/Graphics/SVG/1.1/DTD/svg11.dtd">
<svg xmlns="http://www.w3.org/2000/svg" xmlns:xlink="http://www.w3.org/1999/xlink" version="1.1" width="480" height="480" viewBox="0 0 480 480" xml:space="preserve">
<desc>Created with Fabric.js 3.6.6</desc>
<defs>
</defs>
<g transform="matrix(14.58 0 0 14.58 240.54 240.56)"  >
<path style="stroke: none; stroke-width: 1; stroke-dasharray: none; stroke-linecap: butt; stroke-dashoffset: 0; stroke-linejoin: miter; stroke-miterlimit: 4; fill: rgb(255,255,255); fill-rule: nonzero; opacity: 1;"  transform=" translate(-16, -16)" d="M 18.036 0.131 c -8.765 -1.12 -16.781 5.067 -17.905 13.833 c -1.12 8.765 5.067 16.781 13.833 17.905 c 8.765 1.12 16.781 -5.067 17.9 -13.833 c 1.125 -8.765 -5.061 -16.781 -13.828 -17.905 z M 21.328 10.115 c -0.297 0 -0.579 0.12 -0.787 0.333 l -5.937 5.932 l -0.411 -0.407 l -0.855 -0.859 c 5.849 -5.833 6.907 -5.891 7.989 -5 z M 14.849 16.593 l 5.916 -5.921 c 0.328 -0.344 0.875 -0.339 1.204 0.005 c 0.323 0.349 0.291 0.896 -0.073 1.197 l -6.265 5.5 z M 15.287 17.521 l -1.469 0.317 c -0.031 0.005 -0.072 -0.011 -0.088 -0.047 c -0.016 -0.032 -0.011 -0.068 0.016 -0.095 l 0.859 -0.859 z M 11.547 16.907 l 1.568 -1.563 l 1.172 1.172 l -2.641 0.567 c -0.047 0.011 -0.093 -0.009 -0.115 -0.052 c -0.025 -0.041 -0.015 -0.093 0.016 -0.124 z M 6.688 24.984 c -0.057 -0.005 -0.1 -0.057 -0.095 -0.109 c 0.005 -0.025 0.016 -0.047 0.032 -0.063 h 0.005 l 1.26 -1.26 l 1.631 1.631 z M 9.921 23.307 c -0.124 0.068 -0.187 0.209 -0.156 0.344 l 0.271 1.152 c 0.043 0.167 -0.161 0.28 -0.281 0.156 h -0.005 l -1.635 -1.636 l 5.016 -5.011 l 2.427 -0.525 l 1.161 1.167 c -1.672 1.468 -3.959 2.932 -6.797 4.353 z M 16.959 18.74 l -1.12 -1.12 l 6.265 -5.5 c 0.057 -0.052 0.109 -0.109 0.156 -0.167 c -0.192 1.792 -2.703 4.323 -5.301 6.787 z M 21.839 10.125 h -0.005 c -2.183 -2.193 0.901 -5.563 3.276 -3.584 l -2.145 2.152 c -0.063 0.061 -0.063 0.167 0 0.228 l 1.661 1.663 c -0.932 0.463 -2.052 0.276 -2.787 -0.459 z M 25.271 10.125 c -0.109 0.109 -0.229 0.208 -0.359 0.291 l -1.609 -1.609 l 2.041 -2.047 c 0.885 0.964 0.849 2.443 -0.073 3.365 z M 25.14 8.068 c -0.067 0.047 -0.093 0.129 -0.072 0.208 c 0.099 0.197 0.072 0.432 -0.068 0.599 c -0.068 0.084 -0.052 0.199 0.031 0.265 c 0.032 0.021 0.068 0.037 0.109 0.037 c 0.057 0 0.111 -0.021 0.141 -0.063 c 0.235 -0.281 0.281 -0.677 0.12 -1.005 c -0.063 -0.083 -0.177 -0.104 -0.261 -0.041 z" stroke-linecap="round" />
</g>
</svg>