<?xml version="1.0" encoding="UTF-8" standalone="no" ?>
<!DOCTYPE svg PUBLIC "-//W3C//DTD SVG 1.1//EN" "http://www.w3.org/Graphics/SVG/1.1/DTD/svg11.dtd">
<svg xmlns="http://www.w3.org/2000/svg" xmlns:xlink="http://www.w3.org/1999/xlink" version="1.1" width="550" height="550" viewBox="0 0 550 550" xml:space="preserve">
<desc>Created with Fabric.js 3.6.6</desc>
<defs>
</defs>
<g transform="matrix(1 0 0 1 166667.5 166667.5)"  >
<path style="stroke: none; stroke-width: 1; stroke-dasharray: none; stroke-linecap: butt; stroke-dashoffset: 0; stroke-linejoin: miter; stroke-miterlimit: 4; fill: rgb(123,81,157); fill-rule: evenodd; opacity: 1;"  transform=" translate(-166667, -166667)" d="M 166667 0 c 92048 0 166667 74619 166667 166667 s -74619 166667 -166667 166667 S 0 258715 0 166667 S 74619 0 166667 0 z m 22374 119878 c 5776 1232 10204 3431 13987 6980 c 4867 4603 7536 10174 8708 18180 c 792 5219 470 7272 -1378 8973 c -1730 1583 -4926 1642 -6861 147 c -1407 -1056 -1847 -2170 -2170 -5191 c -381 -4017 -1085 -6832 -2287 -9442 c -2581 -5542 -7126 -8416 -14808 -9354 c -3607 -439 -4692 -850 -5865 -2228 c -2140 -2552 -1319 -6685 1642 -8211 c 1115 -557 1584 -616 4047 -469 c 1524 88 3783 352 4985 615 z m -8269 -43397 c 10087 1261 18239 3695 27182 8064 c 8796 4311 14426 8386 21874 15805 c 6979 7008 10850 12316 14955 20555 c 5718 11494 8973 25158 9529 40201 c 206 5131 59 6275 -1114 7741 c -2228 2845 -7125 2375 -8796 -820 c -528 -1056 -675 -1964 -850 -6070 c -294 -6304 -733 -10380 -1613 -15248 c -3460 -19089 -12609 -34336 -27212 -45274 c -12169 -9148 -24748 -13606 -41227 -14574 c -5571 -322 -6539 -528 -7800 -1495 c -2346 -1848 -2463 -6187 -206 -8210 c 1378 -1261 2346 -1437 7126 -1291 c 2492 88 6157 381 8151 616 v -1 z m -67031 3167 c 1027 352 2610 1173 3519 1759 c 5572 3694 21083 23546 26156 33457 c 2902 5659 3870 9852 2962 12960 c -939 3343 -2493 5102 -9443 10703 c -2785 2258 -5395 4574 -5805 5190 c -1056 1525 -1907 4516 -1907 6627 c 30 4897 3196 13781 7361 20614 c 3225 5307 9002 12110 14719 17330 c 6715 6157 12638 10350 19324 13664 c 8591 4281 13841 5366 17681 3577 c 967 -439 1994 -1026 2317 -1289 c 293 -265 2550 -3021 5014 -6070 c 4750 -5982 5834 -6950 9090 -8064 c 4135 -1407 8357 -1027 12608 1143 c 3226 1672 10263 6041 14808 9207 c 5981 4193 18766 14632 20496 16715 c 3050 3753 3578 8561 1525 13869 c -2170 5600 -10615 16098 -16509 20584 c -5337 4047 -9119 5600 -14104 5835 c -4105 205 -5806 -147 -11055 -2317 c -41169 -16978 -74039 -42312 -100136 -77118 c -13635 -18180 -24015 -37034 -31112 -56593 c -4134 -11406 -4339 -16362 -938 -22197 c 1466 -2463 7712 -8562 12257 -11963 c 7565 -5630 11055 -7712 13841 -8298 c 1906 -411 5219 -88 7330 675 z m 69054 18092 c 17799 2609 31581 10879 40612 24309 c 5073 7565 8239 16450 9324 25979 c 381 3490 381 9853 -29 10909 c -382 997 -1613 2345 -2669 2903 c -1143 586 -3576 528 -4925 -176 c -2258 -1143 -2933 -2961 -2933 -7887 c 0 -7595 -1965 -15600 -5366 -21816 c -3871 -7096 -9500 -12960 -16361 -17037 c -5894 -3519 -14603 -6128 -22550 -6774 c -2874 -234 -4457 -820 -5542 -2081 c -1671 -1906 -1848 -4486 -440 -6627 c 1525 -2375 3870 -2756 10879 -1701 z" stroke-linecap="round" />
</g>
<g transform="matrix(1 0 0 1 278.27 260.55)"  >
<path style="stroke: none; stroke-width: 1; stroke-dasharray: none; stroke-linecap: butt; stroke-dashoffset: 0; stroke-linejoin: miter; stroke-miterlimit: 4; fill: rgb(255,255,255); fill-rule: nonzero; opacity: 1;"  transform=" translate(-255.97, -256.07)" d="M 444 49.9 C 431.3 38.2 379.9 0.9 265.3 0.4 c 0 0 -135.1 -8.1 -200.9 52.3 C 27.8 89.3 14.9 143 13.5 209.5 c -1.4 66.5 -3.1 191.1 117 224.9 h 0.1 l -0.1 51.6 s -0.8 20.9 13 25.1 c 16.6 5.2 26.4 -10.7 42.3 -27.8 c 8.7 -9.4 20.7 -23.2 29.8 -33.7 c 82.2 6.9 145.3 -8.9 152.5 -11.2 c 16.6 -5.4 110.5 -17.4 125.7 -142 c 15.8 -128.6 -7.6 -209.8 -49.8 -246.5 z M 457.9 287 c -12.9 104 -89 110.6 -103 115.1 c -6 1.9 -61.5 15.7 -131.2 11.2 c 0 0 -52 62.7 -68.2 79 c -5.3 5.3 -11.1 4.8 -11 -5.7 c 0 -6.9 0.4 -85.7 0.4 -85.7 c -0.1 0 -0.1 0 0 0 c -101.8 -28.2 -95.8 -134.3 -94.7 -189.8 c 1.1 -55.5 11.6 -101 42.6 -131.6 c 55.7 -50.5 170.4 -43 170.4 -43 c 96.9 0.4 143.3 29.6 154.1 39.4 c 35.7 30.6 53.9 103.8 40.6 211.1 z m -139 -80.8 c 0.4 8.6 -12.5 9.2 -12.9 0.6 c -1.1 -22 -11.4 -32.7 -32.6 -33.9 c -8.6 -0.5 -7.8 -13.4 0.7 -12.9 c 27.9 1.5 43.4 17.5 44.8 46.2 z m 20.3 11.3 c 1 -42.4 -25.5 -75.6 -75.8 -79.3 c -8.5 -0.6 -7.6 -13.5 0.9 -12.9 c 58 4.2 88.9 44.1 87.8 92.5 c -0.1 8.6 -13.1 8.2 -12.9 -0.3 z m 47 13.4 c 0.1 8.6 -12.9 8.7 -12.9 0.1 c -0.6 -81.5 -54.9 -125.9 -120.8 -126.4 c -8.5 -0.1 -8.5 -12.9 0 -12.9 c 73.7 0.5 133 51.4 133.7 139.2 z M 374.9 329 v 0.2 c -10.8 19 -31 40 -51.8 33.3 l -0.2 -0.3 c -21.1 -5.9 -70.8 -31.5 -102.2 -56.5 c -16.2 -12.8 -31 -27.9 -42.4 -42.4 c -10.3 -12.9 -20.7 -28.2 -30.8 -46.6 c -21.3 -38.5 -26 -55.7 -26 -55.7 c -6.7 -20.8 14.2 -41 33.3 -51.8 h 0.2 c 9.2 -4.8 18 -3.2 23.9 3.9 c 0 0 12.4 14.8 17.7 22.1 c 5 6.8 11.7 17.7 15.2 23.8 c 6.1 10.9 2.3 22 -3.7 26.6 l -12 9.6 c -6.1 4.9 -5.3 14 -5.3 14 s 17.8 67.3 84.3 84.3 c 0 0 9.1 0.8 14 -5.3 l 9.6 -12 c 4.6 -6 15.7 -9.8 26.6 -3.7 c 14.7 8.3 33.4 21.2 45.8 32.9 c 7 5.7 8.6 14.4 3.8 23.6 z" stroke-linecap="round" />
</g>
</svg>